<svg width="142" height="136" viewBox="0 0 142 136" fill="none" xmlns="http://www.w3.org/2000/svg">
<path fill-rule="evenodd" clip-rule="evenodd" d="M14.2807 93.82C14.2807 94.3 14.4607 94.28 14.8207 94.46C15.1207 94.24 15.1807 94.06 15.4407 93.76L17.5207 91.46C18.0207 90.82 18.1807 90.5 18.8007 89.84C42.9407 64.38 59.2407 48.62 86.0607 30.3L88.1807 28.84C88.4407 28.62 88.4207 28.68 88.6607 28.52C90.3007 27.44 88.5607 26.02 88.0607 24.8C87.7807 24.12 75.5407 4.92 74.8807 4.28C74.4207 3.84 74.5407 4.02 74.2807 3.42C73.8807 2.52 72.7207 0.96 72.0207 0.22C71.8207 0 71.9807 0.2 71.8207 0C69.1407 0.68 21.6207 81.84 16.1407 90.96C15.3607 91.96 15.1607 92.82 14.7607 93.16C14.5407 93.34 14.2407 93.44 14.2407 93.84" fill="#BABABA"/>
<path fill-rule="evenodd" clip-rule="evenodd" d="M41.7002 79.9401C43.5402 79.9001 43.4402 79.6201 44.9402 79.1601C45.4202 79.0201 45.4802 78.9201 45.8802 78.7601L47.7802 77.9801C49.3802 77.5801 50.9602 76.6601 52.6202 76.1201L54.4602 75.2801C55.3802 74.8401 56.3202 74.5401 57.1802 74.0001C57.6402 73.7201 58.4402 73.7801 59.7002 73.1601C72.1802 67.0401 89.6002 64.5801 103.66 62.6601C105.1 62.4601 109.36 62.9801 109.32 61.4601C109.32 61.3001 108.72 60.3201 108.58 60.0601C105.56 54.6601 98.4802 41.5001 94.7002 36.4601C94.4602 36.1401 93.9202 35.5801 93.7402 35.2801C93.4002 34.6801 93.6002 34.2001 92.5202 34.2401C91.4802 34.2801 91.0802 34.8601 90.4802 35.4201C76.8602 48.1201 59.8002 60.0001 47.4602 72.7601C47.0402 73.2001 46.8802 73.5001 46.5002 73.9201C46.1002 74.3601 45.7002 74.5401 45.3402 75.0201L42.2802 78.5801C41.8202 79.0801 41.5202 79.2601 41.6802 79.9601" fill="#BABABA"/>
<path fill-rule="evenodd" clip-rule="evenodd" d="M85.6608 73.3399C84.6608 73.6199 84.6008 73.9599 83.7608 74.2599C82.9008 74.5599 82.3208 74.3999 82.3208 75.5999C83.0608 75.7599 83.2208 75.8599 84.1808 75.8199C100.041 75.2999 125.021 94.8199 128.261 95.0999C127.921 94.4399 128.001 93.7399 127.661 92.8799C126.821 90.7599 123.941 84.0199 122.981 82.5799C121.881 80.8999 122.421 81.7399 121.721 80.3799L118.901 76.1399C118.061 75.1999 117.281 74.1799 116.641 73.0799C116.521 72.8799 116.441 72.6799 116.281 72.4999C115.941 72.1399 116.141 72.4999 115.841 72.1399C115.581 71.8199 115.641 71.4799 115.361 71.1599C114.301 69.9799 113.841 68.6399 112.021 69.2399L109.101 69.6999C101.661 70.2399 92.9408 71.3199 85.6408 73.3599" fill="#BABABA"/>
<path d="M0.660141 121.9H8.66014V124.88C8.66014 127.24 9.72014 128.48 11.8201 128.62C12.8401 128.72 13.6401 128.44 14.2401 127.76C14.8401 127.08 15.1201 126.1 15.1201 124.78C15.1201 123.14 13.5401 121.28 10.4001 119.22C7.26013 117.16 4.92014 115.4 3.36014 113.92C1.82014 112.44 1.02014 109.96 1.00014 106.5C1.06014 106.24 1.10014 105.92 1.10014 105.54C1.42014 102.3 2.46013 99.9 4.18013 98.3C5.90013 96.7 8.42013 95.86 11.7001 95.76C13.7401 95.7 15.6201 96.08 17.3201 96.9C19.0401 97.72 20.4001 99 21.4401 100.72C22.4801 102.44 23.0001 104.6 23.0001 107.24V108.04H15.0001C15.1601 104.4 14.1201 102.58 11.8801 102.58C10.2401 102.58 9.32013 103.54 9.12013 105.46C9.02013 106.8 9.38013 107.82 10.2001 108.48C11.0201 109.16 12.6601 110.24 15.1401 111.76C17.6001 113.28 19.5001 114.76 20.8201 116.22C22.1401 117.68 22.8601 119.58 23.0001 121.9C23.3201 126.64 22.4401 130.08 20.3601 132.22C18.2601 134.36 15.3801 135.42 11.7001 135.42C8.68013 135.42 6.08013 134.62 3.90013 133C1.72013 131.38 0.640137 129.1 0.640137 126.14V121.9H0.660141Z" fill="#BABABA"/>
<path d="M35.8602 113.02H36.2002C37.9802 113.06 39.2602 112.86 40.0602 112.44C40.8602 112.02 41.3202 111.48 41.5002 110.84C41.6602 110.2 41.7802 109.16 41.8402 107.72C41.8402 105.94 41.5002 104.8 40.8202 104.32C40.1402 103.84 39.2202 103.58 38.0402 103.58C37.7402 103.52 37.3402 103.48 36.8002 103.48H35.8602V113.02ZM27.1802 134.52V96.6599H37.8002C41.4202 96.6599 44.4802 97.3399 46.9802 98.6999C49.4802 100.06 50.6802 103.26 50.5802 108.26C50.4802 111.82 49.7402 114.46 48.3802 116.18C47.0202 117.9 45.3402 118.94 43.3402 119.34C41.3402 119.72 38.8602 119.88 35.8602 119.82V134.52H27.1802Z" fill="#BABABA"/>
<path d="M63.3601 96.5601H54.5801V134.52H63.3601V96.5601Z" fill="#BABABA"/>
<path d="M76.4398 112.72H79.3997C80.4198 112.72 81.2198 112.36 81.7598 111.66C82.2998 110.96 82.5998 109.6 82.5998 107.62C82.5998 105.84 82.0598 104.7 80.9798 104.22C79.8998 103.74 78.3798 103.48 76.4398 103.48V112.72ZM67.7598 134.52V96.6599H80.7997C87.4397 96.6599 90.9198 99.8999 91.2198 106.4C91.2598 109.02 90.8997 111.04 90.1797 112.44C89.4597 113.84 88.2597 114.96 86.5797 115.8C86.5797 115.8 86.5798 115.8 86.5598 115.82C86.5598 115.82 86.5198 115.86 86.4798 115.9C87.5998 115.9 88.5798 116.42 89.4198 117.44C90.2598 118.46 90.7598 119.56 90.9198 120.74L91.3198 129.68C91.4598 132.34 91.8397 133.78 92.4597 134.02V134.52H83.0398C82.6398 133.82 82.4398 132.34 82.4398 130.08V125.84C82.4398 123.82 82.2197 122.3 81.7997 121.3C81.3797 120.3 80.5798 119.74 79.4398 119.64H76.4798V134.54H67.7997L67.7598 134.52Z" fill="#BABABA"/>
<path d="M95.54 134.52V96.5601H115.4V104.14H104.24V111.14H115.1V118.72H104.24V126.94H116.08V134.52H95.54Z" fill="#BABABA"/>
<path d="M118.7 121.9H126.7V124.88C126.7 127.24 127.76 128.48 129.86 128.62C130.88 128.72 131.68 128.44 132.28 127.76C132.88 127.08 133.16 126.1 133.16 124.78C133.16 123.14 131.58 121.28 128.44 119.22C125.3 117.16 122.96 115.4 121.4 113.92C119.86 112.44 119.06 109.96 119.04 106.5C119.1 106.24 119.14 105.92 119.14 105.54C119.46 102.3 120.5 99.9 122.22 98.3C123.94 96.7 126.46 95.86 129.74 95.76C131.78 95.7 133.66 96.08 135.36 96.9C137.08 97.72 138.44 99 139.48 100.72C140.52 102.44 141.04 104.6 141.04 107.24V108.04H133.04C133.2 104.4 132.16 102.58 129.92 102.58C128.28 102.58 127.36 103.54 127.16 105.46C127.06 106.8 127.42 107.82 128.24 108.48C129.06 109.16 130.7 110.24 133.18 111.76C135.64 113.28 137.54 114.76 138.86 116.22C140.18 117.68 140.9 119.58 141.04 121.9C141.36 126.64 140.48 130.08 138.4 132.22C136.32 134.36 133.42 135.42 129.74 135.42C126.72 135.42 124.12 134.62 121.94 133C119.76 131.38 118.68 129.1 118.68 126.14V121.9H118.7Z" fill="#BABABA"/>
</svg>
