<svg width="207" height="72" viewBox="0 0 207 72" fill="none" xmlns="http://www.w3.org/2000/svg">
<g clip-path="url(#clip0_5_499)">
<path fill-rule="evenodd" clip-rule="evenodd" d="M0.706894 70.4775C0.706894 70.8375 0.841894 70.8225 1.11189 70.9575C1.33689 70.7925 1.38189 70.6576 1.57689 70.4326L3.13689 68.7075C3.51189 68.2275 3.63189 67.9875 4.09689 67.4925C22.2019 48.3975 34.4269 36.5775 54.5419 22.8375L56.1319 21.7425C56.3269 21.5775 56.3119 21.6225 56.4919 21.5025C57.7219 20.6925 56.4169 19.6275 56.0419 18.7125C55.8319 18.2025 46.6519 3.80255 46.1569 3.32255C45.8119 2.99255 45.9019 3.12755 45.7069 2.67755C45.4069 2.00255 44.5369 0.832549 44.0269 0.277549C43.8769 0.112549 43.9969 0.262549 43.8769 0.112549C41.8669 0.622549 6.22689 61.4925 2.11689 68.3325C1.53189 69.0825 1.38189 69.7276 1.08189 69.9826C0.916894 70.1176 0.691895 70.1925 0.691895 70.4925" fill="#4C2A89"/>
<path fill-rule="evenodd" clip-rule="evenodd" d="M21.2722 60.0678C22.6522 60.0378 22.5772 59.8278 23.7022 59.4828C24.0622 59.3778 24.1072 59.3028 24.4072 59.1828L25.8322 58.5978C27.0322 58.2978 28.2172 57.5928 29.4622 57.2028L30.8422 56.5728C31.5322 56.2428 32.2372 56.0178 32.8822 55.6128C33.2272 55.4028 33.8122 55.4478 34.7722 54.9828C44.1322 50.3928 57.1972 48.5478 67.7422 47.1078C68.8222 46.9578 72.0172 47.3478 71.9872 46.2078C71.9872 46.0878 71.5372 45.3528 71.4322 45.1578C69.1672 41.1078 63.8572 31.2378 61.0222 27.4578C60.8422 27.2178 60.4372 26.7978 60.3022 26.5728C60.0472 26.1228 60.1972 25.7628 59.3872 25.7928C58.6072 25.8228 58.3072 26.2578 57.8572 26.6778C47.6422 36.2028 34.8472 45.1128 25.5922 54.6828C25.2772 55.0128 25.1572 55.2378 24.8722 55.5528C24.5722 55.8828 24.2722 56.0178 24.0022 56.3778L21.7072 59.0478C21.3622 59.4228 21.1372 59.5578 21.2572 60.0828" fill="#4C2A89"/>
<path fill-rule="evenodd" clip-rule="evenodd" d="M54.2423 55.1175C53.4923 55.3275 53.4473 55.5825 52.8173 55.8075C52.1723 56.0325 51.7373 55.9125 51.7373 56.8125C52.2923 56.9325 52.4123 57.0075 53.1323 56.9775C65.0273 56.5875 83.7623 71.2275 86.1923 71.4375C85.9373 70.9425 85.9973 70.4175 85.7423 69.7725C85.1123 68.1825 82.9523 63.1275 82.2323 62.0475C81.4073 60.7875 81.8123 61.4175 81.2873 60.3975L79.1723 57.2175C78.5423 56.5125 77.9573 55.7475 77.4773 54.9225C77.3873 54.7725 77.3423 54.6225 77.2073 54.4875C76.9523 54.2175 77.1023 54.4875 76.8773 54.2175C76.6823 53.9775 76.7273 53.7225 76.5173 53.4825C75.7223 52.5975 75.3773 51.5925 74.0123 52.0425L71.8223 52.3875C66.2423 52.7925 59.7023 53.6025 54.2273 55.1325" fill="#4C2A89"/>
<path d="M101.207 40.5097H107.207V42.7447C107.207 44.5147 108.002 45.4447 109.577 45.5497C110.342 45.6247 110.942 45.4147 111.392 44.9047C111.842 44.3947 112.052 43.6597 112.052 42.6697C112.052 41.4397 110.867 40.0447 108.512 38.4997C106.157 36.9547 104.402 35.6347 103.232 34.5247C102.077 33.4147 101.477 31.5547 101.462 28.9597C101.507 28.7647 101.537 28.5247 101.537 28.2397C101.777 25.8097 102.557 24.0097 103.847 22.8097C105.137 21.6097 107.027 20.9797 109.487 20.9047C111.017 20.8597 112.427 21.1447 113.702 21.7597C114.992 22.3747 116.012 23.3347 116.792 24.6247C117.572 25.9147 117.962 27.5347 117.962 29.5147V30.1147H111.962C112.082 27.3847 111.302 26.0197 109.622 26.0197C108.392 26.0197 107.702 26.7397 107.552 28.1797C107.477 29.1847 107.747 29.9497 108.362 30.4447C108.977 30.9547 110.207 31.7647 112.067 32.9047C113.912 34.0447 115.337 35.1547 116.327 36.2497C117.317 37.3447 117.857 38.7697 117.962 40.5097C118.202 44.0647 117.542 46.6447 115.982 48.2497C114.407 49.8547 112.247 50.6497 109.487 50.6497C107.222 50.6497 105.272 50.0497 103.637 48.8347C102.002 47.6197 101.192 45.9097 101.192 43.6897V40.5097H101.207Z" fill="white"/>
<path d="M127.607 33.8498H127.862C129.197 33.8798 130.157 33.7298 130.757 33.4148C131.357 33.0998 131.702 32.6948 131.837 32.2148C131.957 31.7348 132.047 30.9548 132.092 29.8748C132.092 28.5398 131.837 27.6848 131.327 27.3248C130.817 26.9648 130.127 26.7698 129.242 26.7698C129.017 26.7248 128.717 26.6948 128.312 26.6948H127.607V33.8498ZM121.082 49.9748V21.5798H129.047C131.762 21.5798 134.057 22.0898 135.932 23.1098C137.807 24.1298 138.707 26.5298 138.632 30.2798C138.557 32.9498 138.002 34.9298 136.982 36.2198C135.962 37.5098 134.702 38.2898 133.202 38.5898C131.702 38.8748 129.842 38.9948 127.592 38.9498V49.9748H121.082Z" fill="white"/>
<path d="M148.217 21.5046H141.632V49.9746H148.217V21.5046Z" fill="white"/>
<path d="M158.042 33.6248H160.262C161.027 33.6248 161.627 33.3548 162.032 32.8298C162.452 32.3048 162.662 31.2848 162.662 29.7998C162.662 28.4648 162.257 27.6098 161.447 27.2498C160.637 26.8898 159.497 26.6948 158.042 26.6948V33.6248ZM151.517 49.9748V21.5798H161.297C166.277 21.5798 168.887 24.0098 169.112 28.8848C169.142 30.8498 168.872 32.3648 168.332 33.4148C167.792 34.4648 166.892 35.3048 165.632 35.9348C165.632 35.9348 165.632 35.9348 165.617 35.9498C165.617 35.9498 165.587 35.9798 165.557 36.0098C166.397 36.0098 167.132 36.3998 167.762 37.1648C168.392 37.9298 168.767 38.7548 168.887 39.6398L169.187 46.3448C169.292 48.3398 169.577 49.4198 170.042 49.5998V49.9748H162.977C162.677 49.4498 162.527 48.3398 162.527 46.6448V43.4648C162.527 41.9498 162.362 40.8098 162.047 40.0598C161.732 39.3098 161.132 38.8898 160.277 38.8148H158.057V49.9898H151.547L151.517 49.9748Z" fill="white"/>
<path d="M172.367 49.9746V21.5046H187.247V27.1896H178.892V32.4396H187.037V38.1246H178.892V44.2896H187.772V49.9746H172.367Z" fill="white"/>
<path d="M189.737 40.5097H195.737V42.7447C195.737 44.5147 196.532 45.4447 198.107 45.5497C198.872 45.6247 199.472 45.4147 199.922 44.9047C200.372 44.3947 200.582 43.6597 200.582 42.6697C200.582 41.4397 199.397 40.0447 197.042 38.4997C194.687 36.9547 192.932 35.6347 191.762 34.5247C190.607 33.4147 190.007 31.5547 189.992 28.9597C190.037 28.7647 190.067 28.5247 190.067 28.2397C190.307 25.8097 191.087 24.0097 192.377 22.8097C193.667 21.6097 195.557 20.9797 198.017 20.9047C199.547 20.8597 200.957 21.1447 202.232 21.7597C203.522 22.3747 204.542 23.3347 205.322 24.6247C206.102 25.9147 206.492 27.5347 206.492 29.5147V30.1147H200.492C200.612 27.3847 199.832 26.0197 198.152 26.0197C196.922 26.0197 196.232 26.7397 196.082 28.1797C196.007 29.1847 196.277 29.9497 196.892 30.4447C197.507 30.9547 198.737 31.7647 200.597 32.9047C202.442 34.0447 203.867 35.1547 204.857 36.2497C205.847 37.3447 206.387 38.7697 206.492 40.5097C206.732 44.0647 206.072 46.6447 204.512 48.2497C202.952 49.8547 200.777 50.6497 198.017 50.6497C195.752 50.6497 193.802 50.0497 192.167 48.8347C190.532 47.6197 189.722 45.9097 189.722 43.6897V40.5097H189.737Z" fill="white"/>
</g>
<defs>
<clipPath id="clip0_5_499">
<rect width="205.848" height="71.3249" fill="white" transform="translate(0.691895 0.112549)"/>
</clipPath>
</defs>
</svg>
