<svg width="16" height="16" viewBox="0 0 16 16" fill="none" xmlns="http://www.w3.org/2000/svg">
<path fill-rule="evenodd" clip-rule="evenodd" d="M1.21455 13.5539C1.21455 13.6121 1.23637 13.6097 1.28001 13.6315C1.31637 13.6048 1.32364 13.583 1.35516 13.5467L1.60728 13.2679C1.66789 13.1903 1.68728 13.1515 1.76243 13.0715C4.68849 9.98545 6.66425 8.07515 9.91516 5.85455L10.1721 5.67758C10.2036 5.65091 10.2012 5.65818 10.2303 5.63879C10.4291 5.50788 10.2182 5.33576 10.1576 5.18788C10.1236 5.10545 8.64001 2.77818 8.56001 2.70061C8.50425 2.64727 8.5188 2.66909 8.48728 2.59636C8.4388 2.48727 8.29819 2.29818 8.21576 2.20848C8.19152 2.18182 8.21092 2.20606 8.19152 2.18182C7.86667 2.26424 2.10667 12.1018 1.44243 13.2073C1.34789 13.3285 1.32364 13.4327 1.27516 13.4739C1.24849 13.4958 1.21213 13.5079 1.21213 13.5564" fill="#4C2A89"/>
<path fill-rule="evenodd" clip-rule="evenodd" d="M4.53818 11.8715C4.76121 11.8667 4.74909 11.8327 4.93091 11.777C4.98909 11.76 4.99636 11.7479 5.04485 11.7285L5.27515 11.6339C5.46909 11.5855 5.6606 11.4715 5.86182 11.4085L6.08485 11.3067C6.19636 11.2533 6.3103 11.217 6.41454 11.1515C6.4703 11.1176 6.56485 11.1248 6.72 11.0497C8.23273 10.3079 10.3442 10.0097 12.0485 9.77697C12.223 9.75273 12.7394 9.81576 12.7345 9.63151C12.7345 9.61212 12.6618 9.49333 12.6448 9.46182C12.2788 8.80727 11.4206 7.21212 10.9624 6.60121C10.9333 6.56242 10.8679 6.49455 10.8461 6.45818C10.8048 6.38545 10.8291 6.32727 10.6982 6.33212C10.5721 6.33697 10.5236 6.40727 10.4509 6.47515C8.8 8.01454 6.73212 9.45455 5.23636 11.0012C5.18545 11.0545 5.16606 11.0909 5.12 11.1418C5.07151 11.1952 5.02303 11.217 4.97939 11.2752L4.60848 11.7067C4.55273 11.7673 4.51636 11.7891 4.53576 11.8739" fill="#4C2A89"/>
<path fill-rule="evenodd" clip-rule="evenodd" d="M9.86667 11.0715C9.74546 11.1055 9.73819 11.1467 9.63637 11.183C9.53212 11.2194 9.46182 11.2 9.46182 11.3455C9.55152 11.3648 9.57091 11.377 9.68728 11.3721C11.6097 11.3091 14.6376 13.6752 15.0303 13.7091C14.9891 13.6291 14.9988 13.5442 14.9576 13.44C14.8558 13.183 14.5067 12.3661 14.3903 12.1915C14.257 11.9879 14.3224 12.0897 14.2376 11.9248L13.8958 11.4109C13.7939 11.297 13.6994 11.1733 13.6218 11.04C13.6073 11.0158 13.6 10.9915 13.5782 10.9697C13.537 10.9261 13.5612 10.9697 13.5249 10.9261C13.4933 10.8873 13.5006 10.8461 13.4667 10.8073C13.3382 10.6642 13.2824 10.5018 13.0618 10.5745L12.7079 10.6303C11.8061 10.6958 10.7491 10.8267 9.86425 11.0739" fill="#4C2A89"/>
</svg>
